<svg xmlns="http://www.w3.org/2000/svg" data-name="Layer 1" viewBox="0 0 64 64"><rect width="58" height="40" x="3" y="6" fill="#94e6ff" rx="2" ry="2"/><path fill="#5cb7e6" d="M5,6H59a2,2,0,0,1,2,2V9a0,0,0,0,1,0,0H3A0,0,0,0,1,3,9V8A2,2,0,0,1,5,6Z"/><path fill="gray" d="M5,39H59a2,2,0,0,1,2,2v5a0,0,0,0,1,0,0H3a0,0,0,0,1,0,0V41A2,2,0,0,1,5,39Z" transform="rotate(180 32 42.5)"/><rect width="58" height="3" x="3" y="39" fill="#6b6b6b"/><rect width="10" height="8" x="27" y="46" fill="#6b6b6b"/><path fill="gray" d="M47,54H17a2,2,0,0,0-2,2v2H49V56A2,2,0,0,0,47,54Z"/><path fill="#ebe3d8" d="M46,22.32A5.74,5.74,0,0,1,40.21,28H23a4.92,4.92,0,1,1,0-9.84,5,5,0,0,1,2.86.89,6.9,6.9,0,0,1-.31-2,7.12,7.12,0,0,1,14.23-.37h.41A5.75,5.75,0,0,1,46,22.32Z"/><path fill="#0a1827" d="M59,5H5A3,3,0,0,0,2,8V44a3,3,0,0,0,3,3H26v6H17a3,3,0,0,0-3,3v2a1,1,0,0,0,1,1H49a1,1,0,0,0,1-1V56a3,3,0,0,0-3-3H38V47H59a3,3,0,0,0,3-3V8A3,3,0,0,0,59,5ZM5,7H59a1,1,0,0,1,1,1V38H4V8A1,1,0,0,1,5,7ZM48,56v1H16V56a1,1,0,0,1,1-1H47A1,1,0,0,1,48,56ZM36,53H28V47h8Zm24-9a1,1,0,0,1-1,1H5a1,1,0,0,1-1-1V40H60Z"/><path fill="#0a1827" d="M23,29h3v3.89l-1.87-1.52a1,1,0,0,0-1.4.14,1,1,0,0,0,.14,1.41l3.5,2.85a.75.75,0,0,0,.15.09l.12.07a1,1,0,0,0,.72,0l.12-.07a.75.75,0,0,0,.15-.09l3.5-2.85a1,1,0,0,0,.14-1.41,1,1,0,0,0-1.4-.14L28,32.89V29h8v2a1,1,0,0,0,2,0V29h2.21a6.68,6.68,0,0,0,.49-13.35A8.14,8.14,0,0,0,24.56,17c0,.12,0,.23,0,.35a6.16,6.16,0,0,0-1.55-.2A5.92,5.92,0,1,0,23,29Zm0-9.84a3.92,3.92,0,0,1,2.28.71,1,1,0,0,0,1.17,0,1,1,0,0,0,.36-1.1A5.91,5.91,0,0,1,26.56,17a6.13,6.13,0,0,1,12.24-.32,1,1,0,0,0,1.09.95h.25A4.69,4.69,0,1,1,40.21,27H38V23.11l1.87,1.52a1,1,0,0,0,.63.23,1,1,0,0,0,.77-.37,1,1,0,0,0-.14-1.41l-3.5-2.85a.75.75,0,0,0-.15-.09l-.12-.07A1,1,0,0,0,37,20h0a1,1,0,0,0-.35.07l-.12.07a.75.75,0,0,0-.15.09l-3.5,2.85a1,1,0,0,0-.14,1.41,1,1,0,0,0,1.4.14L36,23.11V27H28V25a1,1,0,0,0-2,0v2H23a3.92,3.92,0,1,1,0-7.84Z"/></svg>