<svg xmlns="http://www.w3.org/2000/svg" width="24" height="24" viewBox="0 0 24 24"><g fill="none" fill-rule="evenodd"><path fill="#2CBD3E" fill-rule="nonzero" d="M14,17 C14.5522847,17 15,16.5522847 15,16 C15,15.4477153 14.5522847,15 14,15 L10,15 C9.44771525,15 9,15.4477153 9,16 C9,16.5522847 9.44771525,17 10,17 L5,17 C4.44771525,17 4,16.5522847 4,16 L4,13 L20,13 L20,16 C20,16.5522847 19.5522847,17 19,17 L14,17 L14,17 L19,17 C19.5522847,17 20,16.5522847 20,16 L20,5 C20,4.44771525 19.5522847,4 19,4 L5,4 C4.44771525,4 4,4.44771525 4,5 L4,16 C4,16.5522847 4.44771525,17 5,17 L10,17 Z M13,19 L13,20 L16,20 C16.5522847,20 17,20.4477153 17,21 C17,21.5522847 16.5522847,22 16,22 L8,22 C7.44771525,22 7,21.5522847 7,21 C7,20.4477153 7.44771525,20 8,20 L11,20 L11,19 L5,19 C3.34314575,19 2,17.6568542 2,16 L2,5 C2,3.34314575 3.34314575,2 5,2 L19,2 C20.6568542,2 22,3.34314575 22,5 L22,16 C22,17.6568542 20.6568542,19 19,19 L13,19 Z"/><rect width="24" height="24"/></g></svg>