<svg xmlns="http://www.w3.org/2000/svg" enable-background="new 0 0 1000 1000" viewBox="0 0 1000 1000"><rect width="1000" height="1000" fill="#381e77"/><path fill="#1c1c1c" d="M791,663.657H241c-11.046,0-20-8.954-20-20v0c0-11.046,8.954-20,20-20
	h550c11.046,0,20,8.954,20,20v0C811,654.703,802.046,663.657,791,663.657z" opacity=".23"/><path fill="#b4aac1" d="M556.496,599.007h-270c-5.523,0-10-4.477-10-10v-198c0-5.523,4.477-10,10-10h270
	c5.523,0,10,4.477,10,10v198C566.496,594.53,562.019,599.007,556.496,599.007z"/><path fill="#d3d3d1" d="M282.496,582.942V391.008c0-2.209,1.791-4,4-4h270c2.209,0,4,1.791,4,4v191.934
	c0,2.209-1.791,4-4,4h-270C284.287,586.942,282.496,585.151,282.496,582.942z"/><path fill="none" stroke="#0c1740" stroke-linecap="round" stroke-linejoin="round" stroke-miterlimit="10" stroke-width="6" d="
	M556.496,599.007h-270c-5.523,0-10-4.477-10-10v-198c0-5.523,4.477-10,10-10h270c5.523,0,10,4.477,10,10v198
	C566.496,594.53,562.019,599.007,556.496,599.007z"/><path fill="#b4aac1" d="M294.496,551.573v-146c0-4.418,3.582-8,8-8h238c4.418,0,8,3.582,8,8v146
	c0,4.418-3.582,8-8,8h-238C298.078,559.573,294.496,555.991,294.496,551.573z"/><path fill="#0c1740" d="M302.496,555.573c-2.206,0-4-1.794-4-4v-146c0-2.206,1.794-4,4-4h238
	c2.206,0,4,1.794,4,4v146c0,2.206-1.794,4-4,4H302.496z"/><g opacity=".63"><path fill="#4988e2" d="M442.315 476.604c-6.841-3.283-13.682-2.015-20.523-.403 0-6.841 0-13.682 0-20.523 6.841-1.613 13.682-2.88 20.523.403C442.315 462.922 442.315 469.763 442.315 476.604zM442.315 500.487c-6.841-3.283-13.682-2.015-20.523-.403 0-6.841 0-13.682 0-20.523 6.841-1.613 13.682-2.88 20.523.403C442.315 486.805 442.315 493.646 442.315 500.487zM418.416 500.89c-6.841 1.613-13.682 2.88-20.523-.403 0-6.841 0-13.682 0-20.523 6.841 3.283 13.682 2.015 20.523.403C418.416 487.207 418.416 494.048 418.416 500.89zM418.416 477.007c-6.841 1.613-13.682 2.88-20.523-.403 0-6.841 0-13.682 0-20.523 6.841 3.283 13.682 2.015 20.523.403C418.416 463.325 418.416 470.166 418.416 477.007z"/></g><path fill="#b4aac1" d="M440.746,599.007L440.746,599.007h-38.5l0,0c0,13.156-13.025,24.085-29.863,25.057
	l-14.323,0.827c-7.617,0.44-13.565,6.629-13.565,14.116l0,0h154l0,0c0-7.487-5.948-13.677-13.565-14.116l-14.323-0.827
	C453.771,623.092,440.746,612.164,440.746,599.007z"/><path fill="#d3d3d1" d="M372.384,624.064l-14.323,0.827c-7.617,0.44-13.565,6.629-13.565,14.116h154
	c0-7.487-5.948-13.677-13.565-14.116l-14.323-0.827c-1.948-0.112-3.843-0.364-5.674-0.731h-86.876
	C376.226,623.701,374.332,623.952,372.384,624.064z"/><path fill="#958ba5" d="M446.673,613.522c-3.738-4.111-5.927-9.125-5.927-14.514h-38.5
	c0,5.39-2.188,10.404-5.927,14.514H446.673z"/><path fill="none" stroke="#0c1740" stroke-linecap="round" stroke-linejoin="round" stroke-miterlimit="10" stroke-width="6" d="
	M440.746,599.007L440.746,599.007h-38.5l0,0c0,13.156-13.025,24.085-29.863,25.057l-14.323,0.827
	c-7.617,0.44-13.565,6.629-13.565,14.116l0,0h154l0,0c0-7.487-5.948-13.677-13.565-14.116l-14.323-0.827
	C453.771,623.092,440.746,612.164,440.746,599.007z"/><path fill="#364477" d="M730.875,625.007h-132c-4.418,0-8-3.582-8-8v-286c0-4.418,3.582-8,8-8h132
	c4.418,0,8,3.582,8,8v286C738.875,621.426,735.293,625.007,730.875,625.007z"/><path fill="none" stroke="#0c1740" stroke-linecap="round" stroke-linejoin="round" stroke-miterlimit="10" stroke-width="6" d="
	M730.875,625.007h-132c-4.418,0-8-3.582-8-8v-286c0-4.418,3.582-8,8-8h132c4.418,0,8,3.582,8,8v286
	C738.875,621.426,735.293,625.007,730.875,625.007z"/><path fill="#3e5080" d="M664.875,615.007c-35.29,0-64-28.71-64-64v-217c0-0.551,0.448-1,1-1h126
	c0.552,0,1,0.449,1,1v217C728.875,586.297,700.165,615.007,664.875,615.007z"/><path fill="#364477" d="M600.875,355.522v182.032c0,35.916,28.71,65.135,64,65.135s64-29.219,64-65.135
	V355.522H600.875z"/><path fill="none" stroke="#0c1740" stroke-linecap="round" stroke-linejoin="round" stroke-miterlimit="10" stroke-width="3" d="
	M664.875,615.007c-35.29,0-64-28.71-64-64v-217c0-0.551,0.448-1,1-1h126c0.552,0,1,0.449,1,1v217
	C728.875,586.297,700.165,615.007,664.875,615.007z"/><path fill="#485d8c" d="M664.875,591.022c-35.29,0-64-28.71-64-64V334.008c0-0.551,0.448-1,1-1h126
	c0.552,0,1,0.449,1,1v193.014C728.875,562.312,700.165,591.022,664.875,591.022z"/><path fill="none" stroke="#0c1740" stroke-linecap="round" stroke-linejoin="round" stroke-miterlimit="10" stroke-width="3" d="
	M664.875,591.022c-35.29,0-64-28.71-64-64V334.008c0-0.551,0.448-1,1-1h126c0.552,0,1,0.449,1,1v193.014
	C728.875,562.312,700.165,591.022,664.875,591.022z"/><rect width="112" height="14" x="608.875" y="625.007" fill="#263866"/><rect width="112" height="7" x="608.875" y="625.007" fill="#1b2f5b"/><rect width="112" height="14" x="608.875" y="625.007" fill="none" stroke="#0c1740" stroke-linecap="round" stroke-linejoin="round" stroke-miterlimit="10" stroke-width="6"/><path fill="#364477" d="M716.357,367.296H613.393c-2.495,0-4.518-2.023-4.518-4.518V346.29
	c0-2.495,2.023-4.518,4.518-4.518h102.964c2.495,0,4.518,2.023,4.518,4.518v16.488C720.875,365.274,718.852,367.296,716.357,367.296
	z"/><path fill="none" stroke="#0c1740" stroke-linecap="round" stroke-linejoin="round" stroke-miterlimit="10" stroke-width="2" d="
	M716.357,367.296H613.393c-2.495,0-4.518-2.023-4.518-4.518V346.29c0-2.495,2.023-4.518,4.518-4.518h102.964
	c2.495,0,4.518,2.023,4.518,4.518v16.488C720.875,365.274,718.852,367.296,716.357,367.296z"/><path fill="#364477" d="M716.357,404.022h-69.608c-2.495,0-4.518-2.023-4.518-4.518v-11.413
	c0-2.495,2.023-4.518,4.518-4.518h69.608c2.495,0,4.518,2.023,4.518,4.518v11.413C720.875,401.999,718.852,404.022,716.357,404.022z
	"/><path fill="none" stroke="#0c1740" stroke-linecap="round" stroke-linejoin="round" stroke-miterlimit="10" stroke-width="2" d="
	M716.357,404.022h-69.608c-2.495,0-4.518-2.023-4.518-4.518v-11.413c0-2.495,2.023-4.518,4.518-4.518h69.608
	c2.495,0,4.518,2.023,4.518,4.518v11.413C720.875,401.999,718.852,404.022,716.357,404.022z"/><circle cx="666.688" cy="537.622" r="17.771" fill="#5873a3"/><path fill="#364477" d="M719.072,460.522H610.678c-0.996,0-1.803-0.807-1.803-1.803v-24.395
	c0-0.996,0.807-1.803,1.803-1.803h108.395c0.996,0,1.803,0.807,1.803,1.803v24.395C720.875,459.715,720.068,460.522,719.072,460.522
	z"/><circle cx="664.875" cy="488.577" r="10.293" fill="#0c1740"/><circle cx="664.875" cy="488.577" r="9.472" fill="#1f2f63"/><path fill="#0c1740" d="M707.137,450.022h-18.813c-0.604,0-1.094-0.49-1.094-1.094v-4.813
	c0-0.604,0.49-1.094,1.094-1.094h18.813c0.604,0,1.094,0.49,1.094,1.094v4.813C708.23,449.532,707.741,450.022,707.137,450.022z"/><path fill="#485d8c" d="M688.23,446.428v-2.313c0-0.052,0.042-0.094,0.094-0.094h18.813
	c0.052,0,0.094,0.042,0.094,0.094v2.313c0,0.052-0.042,0.094-0.094,0.094h-18.813C688.272,446.522,688.23,446.48,688.23,446.428z"/><path fill="#0c1740" d="M681.387,450.022h-18.813c-0.604,0-1.094-0.49-1.094-1.094v-4.813
	c0-0.604,0.49-1.094,1.094-1.094h18.813c0.604,0,1.094,0.49,1.094,1.094v4.813C682.48,449.532,681.991,450.022,681.387,450.022z"/><path fill="#485d8c" d="M662.48,446.428v-2.313c0-0.052,0.042-0.094,0.094-0.094h18.813
	c0.052,0,0.094,0.042,0.094,0.094v2.313c0,0.052-0.042,0.094-0.094,0.094h-18.813C662.522,446.522,662.48,446.48,662.48,446.428z"/><circle cx="530.105" cy="572.8" r="6" fill="#0c1740" opacity=".51"/><circle cx="530.105" cy="572.8" r="5.57" fill="#fff"/><circle cx="516.23" cy="572.8" r="3" fill="#0c1740" opacity=".51"/><circle cx="516.23" cy="572.8" r="2.778" fill="#fff"/><g opacity=".49"><rect width="2.872" height="11.49" x="418.029" y="570.5" fill="#0c1740" transform="rotate(-45.001 419.46 576.253)"/><rect width="5.745" height="2.872" x="416.593" y="568.716" fill="#0c1740" transform="rotate(-45.001 419.46 570.16)"/><rect width="5.745" height="2.872" x="422.686" y="574.809" fill="#0c1740" transform="rotate(-45.001 425.554 576.253)"/><rect width="5.745" height="2.872" x="419.639" y="571.762" fill="#0c1740" transform="rotate(-45.001 422.507 573.206)"/></g><rect width="4" height="16" x="661.86" y="532.45" fill="#485d8c" transform="rotate(-45.001 663.857 540.46)"/><rect width="8" height="4" x="659.86" y="529.965" fill="#485d8c" transform="rotate(-45.001 663.857 531.975)"/><rect width="8" height="4" x="668.345" y="538.45" fill="#485d8c" transform="rotate(-45.001 672.342 540.46)"/><rect width="8" height="4" x="664.102" y="534.207" fill="#485d8c" transform="rotate(-45.001 668.1 536.218)"/><path fill="#0c1740" d="M712.814,396.813H648.98c-0.69,0-1.25-0.56-1.25-1.25v-4.333
	c0-0.69,0.56-1.25,1.25-1.25h63.833c0.69,0,1.25,0.56,1.25,1.25v4.333C714.064,396.254,713.504,396.813,712.814,396.813z"/><path fill="#0c1740" d="M701.23,398.897h-14.833c-3.038,0-5.5-2.462-5.5-5.5v0c0-3.038,2.462-5.5,5.5-5.5
	h14.833c3.038,0,5.5,2.462,5.5,5.5v0C706.73,396.434,704.268,398.897,701.23,398.897z"/><path fill="#091438" d="M649.73,393.397L649.73,393.397c0-0.782,0.634-1.417,1.417-1.417h59.5
	c0.782,0,1.417,0.634,1.417,1.417l0,0c0,0.782-0.634,1.417-1.417,1.417h-59.5C650.365,394.813,649.73,394.179,649.73,393.397z"/><circle cx="650.604" cy="446.522" r="3.5" fill="#0c1740"/><circle cx="636.373" cy="446.522" r="3.5" fill="#0c1740"/><circle cx="650.604" cy="446.522" r="3.5" fill="none" stroke="#1ac17d" stroke-miterlimit="10" stroke-width="2" opacity=".58"/><circle cx="636.373" cy="446.522" r="3.5" fill="none" stroke="#f9232e" stroke-miterlimit="10" stroke-width="2" opacity=".58"/><path fill="none" stroke="#0c1740" stroke-linecap="round" stroke-linejoin="round" stroke-miterlimit="10" stroke-width="2" d="
	M660.693,483.647c-1.398,1.188-2.29,2.956-2.29,4.93c0,3.568,2.903,6.472,6.472,6.472s6.472-2.903,6.472-6.472
	c0-1.974-0.891-3.742-2.29-4.93"/><line x1="664.875" x2="664.875" y1="480.959" y2="488.577" fill="none" stroke="#0c1740" stroke-linecap="round" stroke-linejoin="round" stroke-miterlimit="10" stroke-width="2"/><path fill="#0c1740" d="M715.605 358.272h-101.25c-.759 0-1.375-.616-1.375-1.375v-9.5c0-.759.616-1.375 1.375-1.375h101.25c.759 0 1.375.616 1.375 1.375v9.5C716.98 357.656 716.365 358.272 715.605 358.272zM715.376 364.188h-6.625c-.449 0-.813-.364-.813-.813v-1.125c0-.449.364-.813.813-.813h6.625c.449 0 .813.364.813.813v1.125C716.188 363.825 715.825 364.188 715.376 364.188z"/><path fill="#2ad142" d="M703.522,364.188L703.522,364.188c-0.759,0-1.375-0.616-1.375-1.375l0,0
	c0-0.759,0.616-1.375,1.375-1.375l0,0c0.759,0,1.375,0.616,1.375,1.375l0,0C704.897,363.573,704.281,364.188,703.522,364.188z"/><circle cx="682.147" cy="479.709" r="2.313" fill="#0c1740"/><circle cx="682.147" cy="479.709" r="1.688" fill="#1f2f63"/><path fill="#b7b7b7" d="M582.97 635.382h-104v-8.424c0-2.914 2.362-5.276 5.276-5.276h93.448c2.914 0 5.276 2.362 5.276 5.276V635.382zM413.13 635.382h-20v-8.424c0-2.914 2.362-5.276 5.276-5.276h9.448c2.914 0 5.276 2.362 5.276 5.276V635.382zM441.05 635.382h-20v-8.424c0-2.914 2.362-5.276 5.276-5.276h9.448c2.914 0 5.276 2.362 5.276 5.276V635.382zM610.89 635.382h-20v-8.424c0-2.914 2.362-5.276 5.276-5.276h9.448c2.914 0 5.276 2.362 5.276 5.276V635.382zM639.81 635.382h-20v-8.424c0-2.914 2.362-5.276 5.276-5.276h9.448c2.914 0 5.276 2.362 5.276 5.276V635.382zM667.73 635.382h-20v-8.424c0-2.914 2.362-5.276 5.276-5.276h9.448c2.914 0 5.276 2.362 5.276 5.276V635.382z"/><path fill="#d3d3d1" d="M674.455,651.932h-287.45c-4.57,0-8.275-3.705-8.275-8.275v0
		c0-4.57,3.705-8.275,8.275-8.275h287.45c4.57,0,8.275,3.705,8.275,8.275v0C682.73,648.227,679.025,651.932,674.455,651.932z"/><path fill="none" stroke="#0c1740" stroke-linecap="round" stroke-linejoin="round" stroke-miterlimit="10" stroke-width="6" d="M582.97 635.382h-104v-8.424c0-2.914 2.362-5.276 5.276-5.276h93.448c2.914 0 5.276 2.362 5.276 5.276V635.382zM413.13 635.382h-20v-8.424c0-2.914 2.362-5.276 5.276-5.276h9.448c2.914 0 5.276 2.362 5.276 5.276V635.382zM441.05 635.382h-20v-8.424c0-2.914 2.362-5.276 5.276-5.276h9.448c2.914 0 5.276 2.362 5.276 5.276V635.382z"/><path fill="#b7b7b7" d="M470.074,635.382h-20v-8.424c0-2.914,2.362-5.276,5.276-5.276h9.448
		c2.914,0,5.276,2.362,5.276,5.276V635.382z"/><path fill="none" stroke="#0c1740" stroke-linecap="round" stroke-linejoin="round" stroke-miterlimit="10" stroke-width="6" d="M470.074 635.382h-20v-8.424c0-2.914 2.362-5.276 5.276-5.276h9.448c2.914 0 5.276 2.362 5.276 5.276V635.382zM610.89 635.382h-20v-8.424c0-2.914 2.362-5.276 5.276-5.276h9.448c2.914 0 5.276 2.362 5.276 5.276V635.382zM639.81 635.382h-20v-8.424c0-2.914 2.362-5.276 5.276-5.276h9.448c2.914 0 5.276 2.362 5.276 5.276V635.382zM667.73 635.382h-20v-8.424c0-2.914 2.362-5.276 5.276-5.276h9.448c2.914 0 5.276 2.362 5.276 5.276V635.382zM674.455 651.932h-287.45c-4.57 0-8.275-3.705-8.275-8.275v0c0-4.57 3.705-8.275 8.275-8.275h287.45c4.57 0 8.275 3.705 8.275 8.275v0C682.73 648.227 679.025 651.932 674.455 651.932z"/><path fill="#d3d3d1" d="M696.526,651.932c0-12.122,9.827-21.948,21.948-21.948s21.948,9.827,21.948,21.948
		H696.526z"/><path fill="none" stroke="#0c1740" stroke-linecap="round" stroke-linejoin="round" stroke-miterlimit="10" stroke-width="6" d="
		M696.526,651.932c0-12.122,9.827-21.948,21.948-21.948s21.948,9.827,21.948,21.948H696.526z"/><line x1="718.474" x2="718.474" y1="632.118" y2="638.739" fill="none" stroke="#0c1740" stroke-linecap="round" stroke-linejoin="round" stroke-miterlimit="10" stroke-width="6"/><polygon fill="#192859" points="377.654 555.572 456.121 401.572 418.349 401.572 339.882 555.572" opacity=".72"/><polygon fill="#192859" points="424.643 555.572 503.11 401.572 484.224 401.572 405.758 555.572" opacity=".72"/><g><path fill="#67c18b" d="M620.69,475.994c-1.446-0.694-2.892-0.426-4.338-0.085c0-1.446,0-2.892,0-4.338
		c1.446-0.341,2.892-0.609,4.338,0.085C620.69,473.102,620.69,474.548,620.69,475.994z"/><path fill="#e5e56a" d="M620.69,481.042c-1.446-0.694-2.892-0.426-4.338-0.085c0-1.446,0-2.892,0-4.338
		c1.446-0.341,2.892-0.609,4.338,0.085C620.69,478.15,620.69,479.596,620.69,481.042z"/><path fill="#4988e2" d="M615.639,481.127c-1.446,0.341-2.892,0.609-4.338-0.085c0-1.446,0-2.892,0-4.338
		c1.446,0.694,2.892,0.426,4.338,0.085C615.639,478.235,615.639,479.681,615.639,481.127z"/><path fill="#e87060" d="M615.639,476.079c-1.446,0.341-2.892,0.609-4.338-0.085c0-1.446,0-2.892,0-4.338
		c1.446,0.694,2.892,0.426,4.338,0.085C615.639,473.187,615.639,474.633,615.639,476.079z"/></g><line x1="623.667" x2="635.583" y1="474.5" y2="474.5" fill="none" stroke="#0c1740" stroke-linecap="round" stroke-linejoin="round" stroke-miterlimit="10" stroke-width="2" opacity=".28"/><line x1="623.667" x2="632.873" y1="478.083" y2="478.083" fill="none" stroke="#0c1740" stroke-linecap="round" stroke-linejoin="round" stroke-miterlimit="10" stroke-width="2" opacity=".28"/></svg>