<svg xmlns="http://www.w3.org/2000/svg" width="787" height="559" viewBox="0 0 787 559"><defs><linearGradient id="a" x1="50.001%" x2="50.001%" y1="99.999%" y2="-11.28%"><stop offset="0%" stop-color="#70B"/><stop offset="52.41%" stop-color="#00008B"/><stop offset="100%" stop-color="#00003B"/></linearGradient><linearGradient id="b" x1="-.001%" x2="100%" y1="49.992%" y2="49.992%"><stop offset="0%" stop-color="#FFF"/><stop offset="12.25%" stop-color="#FBFDFF"/><stop offset="24.76%" stop-color="#EFF5FF"/><stop offset="37.4%" stop-color="#DAE9FF"/><stop offset="50.13%" stop-color="#BDD9FF"/><stop offset="62.95%" stop-color="#98C3FF"/><stop offset="75.82%" stop-color="#6BA9FF"/><stop offset="88.49%" stop-color="#378AFF"/><stop offset="100%" stop-color="#006AFF"/></linearGradient><linearGradient id="c" x1="49.999%" x2="49.999%" y1="-73.516%" y2="143.553%"><stop offset="0%" stop-color="#1DACFF"/><stop offset="7.88%" stop-color="#20A9FB"/><stop offset="15.92%" stop-color="#28A0EF"/><stop offset="24.04%" stop-color="#3690DA"/><stop offset="32.22%" stop-color="#497BBE"/><stop offset="40.36%" stop-color="#625F99"/><stop offset="41.17%" stop-color="#655C95"/><stop offset="48.47%" stop-color="#6F5F91"/><stop offset="60.72%" stop-color="#896886"/><stop offset="76.39%" stop-color="#B37774"/><stop offset="94.72%" stop-color="#ED8C5C"/><stop offset="100%" stop-color="#FF9254"/></linearGradient><linearGradient id="d" x1="-.002%" x2="99.994%" y1="50%" y2="50%"><stop offset="0%" stop-color="#311842"/><stop offset="46.11%" stop-color="#190C4B"/><stop offset="100%" stop-color="#000054"/></linearGradient><linearGradient id="e" x1="49.96%" x2="49.96%" y1="96.954%" y2="-1.526%"><stop offset="0%" stop-color="#FFF"/><stop offset="17.96%" stop-color="#D6E7FF"/><stop offset="58.54%" stop-color="#6FABFF"/><stop offset="100%" stop-color="#006AFF"/></linearGradient><linearGradient id="f" x1="49.97%" x2="49.97%" y1="96.954%" y2="-1.526%"><stop offset="0%" stop-color="#FFF"/><stop offset="12.25%" stop-color="#FBFDFF"/><stop offset="24.76%" stop-color="#EFF5FF"/><stop offset="37.4%" stop-color="#DAE9FF"/><stop offset="50.13%" stop-color="#BDD9FF"/><stop offset="62.95%" stop-color="#98C3FF"/><stop offset="75.82%" stop-color="#6BA9FF"/><stop offset="88.49%" stop-color="#378AFF"/><stop offset="100%" stop-color="#006AFF"/></linearGradient><linearGradient id="g" x1=".006%" x2="100.008%" y1="50%" y2="50%"><stop offset="0%" stop-color="#311842"/><stop offset="46.11%" stop-color="#190C4B"/><stop offset="100%" stop-color="#000054"/></linearGradient><linearGradient id="h" x1="50.007%" x2="50.007%" y1="-2.096%" y2="361.675%"><stop offset="0%" stop-color="#7633FF"/><stop offset="15.85%" stop-color="#7137FF"/><stop offset="35.35%" stop-color="#6243FF"/><stop offset="56.76%" stop-color="#4957FF"/><stop offset="79.37%" stop-color="#2672FF"/><stop offset="100%" stop-color="#0090FF"/></linearGradient><linearGradient id="i" x1="50.007%" x2="50.007%" y1="-116.546%" y2="261.011%"><stop offset="0%" stop-color="#7633FF"/><stop offset="15.85%" stop-color="#7137FF"/><stop offset="35.35%" stop-color="#6243FF"/><stop offset="56.76%" stop-color="#4957FF"/><stop offset="79.37%" stop-color="#2672FF"/><stop offset="100%" stop-color="#0090FF"/></linearGradient><linearGradient id="j" x1="50.007%" x2="50.007%" y1="-225.092%" y2="147.389%"><stop offset="0%" stop-color="#7633FF"/><stop offset="15.85%" stop-color="#7137FF"/><stop offset="35.35%" stop-color="#6243FF"/><stop offset="56.76%" stop-color="#4957FF"/><stop offset="79.37%" stop-color="#2672FF"/><stop offset="100%" stop-color="#0090FF"/></linearGradient><linearGradient id="k" x1="49.984%" x2="49.984%" y1="-65.762%" y2="141.482%"><stop offset="0%" stop-color="#1DACFF"/><stop offset="13.55%" stop-color="#1CA9FB"/><stop offset="27.39%" stop-color="#1B9FEF"/><stop offset="41.38%" stop-color="#188EDA"/><stop offset="55.46%" stop-color="#1476BD"/><stop offset="69.62%" stop-color="#0F5898"/><stop offset="83.85%" stop-color="#08326B"/><stop offset="97.88%" stop-color="#010737"/><stop offset="100%" stop-color="#00002E"/></linearGradient><linearGradient id="l" x1="54.581%" x2="46.547%" y1="36.424%" y2="60.15%"><stop offset="0%" stop-color="#1DACFF"/><stop offset="13.55%" stop-color="#1CA9FB"/><stop offset="27.39%" stop-color="#1B9FEF"/><stop offset="41.38%" stop-color="#188EDA"/><stop offset="55.46%" stop-color="#1476BD"/><stop offset="69.62%" stop-color="#0F5898"/><stop offset="83.85%" stop-color="#08326B"/><stop offset="97.88%" stop-color="#010737"/><stop offset="100%" stop-color="#00002E"/></linearGradient><linearGradient id="m" x1="49.984%" x2="49.984%" y1="-1042.984%" y2="419.402%"><stop offset="0%" stop-color="#1DACFF"/><stop offset="13.55%" stop-color="#1CA9FB"/><stop offset="27.39%" stop-color="#1B9FEF"/><stop offset="41.38%" stop-color="#188EDA"/><stop offset="55.46%" stop-color="#1476BD"/><stop offset="69.62%" stop-color="#0F5898"/><stop offset="83.85%" stop-color="#08326B"/><stop offset="97.88%" stop-color="#010737"/><stop offset="100%" stop-color="#00002E"/></linearGradient><linearGradient id="n" x1="57.964%" x2="46.016%" y1="55.708%" y2="34.459%"><stop offset="0%" stop-color="#311842"/><stop offset="46.11%" stop-color="#190C4B"/><stop offset="100%" stop-color="#000054"/></linearGradient><linearGradient id="o" x1="50.035%" x2="50.035%" y1="96.954%" y2="-1.526%"><stop offset="0%" stop-color="#FFF"/><stop offset="9.75%" stop-color="#EFF6FF"/><stop offset="28.85%" stop-color="#C4DDFF"/><stop offset="55.46%" stop-color="#80B5FF"/><stop offset="88.23%" stop-color="#237FFF"/><stop offset="100%" stop-color="#006AFF"/></linearGradient><linearGradient id="p" x1="50.025%" x2="50.025%" y1="96.954%" y2="-1.526%"><stop offset="0%" stop-color="#FFF"/><stop offset="12.25%" stop-color="#FBFDFF"/><stop offset="24.76%" stop-color="#EFF5FF"/><stop offset="37.4%" stop-color="#DAE9FF"/><stop offset="50.13%" stop-color="#BDD9FF"/><stop offset="62.95%" stop-color="#98C3FF"/><stop offset="75.82%" stop-color="#6BA9FF"/><stop offset="88.49%" stop-color="#378AFF"/><stop offset="100%" stop-color="#006AFF"/></linearGradient><linearGradient id="q" x1=".004%" x2="100.007%" y1="50%" y2="50%"><stop offset="0%" stop-color="#311842"/><stop offset="46.11%" stop-color="#190C4B"/><stop offset="100%" stop-color="#000054"/></linearGradient><linearGradient id="r" x1="50.006%" x2="50.006%" y1="-2.003%" y2="345.733%"><stop offset="0%" stop-color="#7633FF"/><stop offset="15.85%" stop-color="#7137FF"/><stop offset="35.35%" stop-color="#6243FF"/><stop offset="56.76%" stop-color="#4957FF"/><stop offset="79.37%" stop-color="#2672FF"/><stop offset="100%" stop-color="#0090FF"/></linearGradient><linearGradient id="s" x1="50.006%" x2="50.006%" y1="-111.244%" y2="249.133%"><stop offset="0%" stop-color="#7633FF"/><stop offset="15.85%" stop-color="#7137FF"/><stop offset="35.35%" stop-color="#6243FF"/><stop offset="56.76%" stop-color="#4957FF"/><stop offset="79.37%" stop-color="#2672FF"/><stop offset="100%" stop-color="#0090FF"/></linearGradient><linearGradient id="t" x1="50.006%" x2="50.006%" y1="-225.092%" y2="147.389%"><stop offset="0%" stop-color="#7633FF"/><stop offset="15.85%" stop-color="#7137FF"/><stop offset="35.35%" stop-color="#6243FF"/><stop offset="56.76%" stop-color="#4957FF"/><stop offset="79.37%" stop-color="#2672FF"/><stop offset="100%" stop-color="#0090FF"/></linearGradient><linearGradient id="u" x1="49.983%" x2="49.983%" y1="-65.762%" y2="141.482%"><stop offset="0%" stop-color="#1DACFF"/><stop offset="13.55%" stop-color="#1CA9FB"/><stop offset="27.39%" stop-color="#1B9FEF"/><stop offset="41.38%" stop-color="#188EDA"/><stop offset="55.46%" stop-color="#1476BD"/><stop offset="69.62%" stop-color="#0F5898"/><stop offset="83.85%" stop-color="#08326B"/><stop offset="97.88%" stop-color="#010737"/><stop offset="100%" stop-color="#00002E"/></linearGradient><linearGradient id="v" x1="53.499%" x2="45.466%" y1="40.237%" y2="62.547%"><stop offset="0%" stop-color="#1DACFF"/><stop offset="13.55%" stop-color="#1CA9FB"/><stop offset="27.39%" stop-color="#1B9FEF"/><stop offset="41.38%" stop-color="#188EDA"/><stop offset="55.46%" stop-color="#1476BD"/><stop offset="69.62%" stop-color="#0F5898"/><stop offset="83.85%" stop-color="#08326B"/><stop offset="97.88%" stop-color="#010737"/><stop offset="100%" stop-color="#00002E"/></linearGradient><linearGradient id="w" x1="49.983%" x2="49.983%" y1="-1109.126%" y2="446.015%"><stop offset="0%" stop-color="#1DACFF"/><stop offset="13.55%" stop-color="#1CA9FB"/><stop offset="27.39%" stop-color="#1B9FEF"/><stop offset="41.38%" stop-color="#188EDA"/><stop offset="55.46%" stop-color="#1476BD"/><stop offset="69.62%" stop-color="#0F5898"/><stop offset="83.85%" stop-color="#08326B"/><stop offset="97.88%" stop-color="#010737"/><stop offset="100%" stop-color="#00002E"/></linearGradient><linearGradient id="x" x1="49.996%" x2="49.996%" y1="97.925%" y2="-.225%"><stop offset="0%" stop-color="#311842"/><stop offset="46.11%" stop-color="#190C4B"/><stop offset="100%" stop-color="#000054"/></linearGradient><linearGradient id="y" x1="-.006%" x2="100.002%" y1="50.001%" y2="50.001%"><stop offset="0%" stop-color="#FFF"/><stop offset="12.25%" stop-color="#FBFDFF"/><stop offset="24.76%" stop-color="#EFF5FF"/><stop offset="37.4%" stop-color="#DAE9FF"/><stop offset="50.13%" stop-color="#BDD9FF"/><stop offset="62.95%" stop-color="#98C3FF"/><stop offset="75.82%" stop-color="#6BA9FF"/><stop offset="88.49%" stop-color="#378AFF"/><stop offset="100%" stop-color="#006AFF"/></linearGradient><linearGradient id="z" x1="-.004%" x2="100.003%" y1="49.996%" y2="49.996%"><stop offset="0%" stop-color="#FFF"/><stop offset="12.25%" stop-color="#FBFDFF"/><stop offset="24.76%" stop-color="#EFF5FF"/><stop offset="37.4%" stop-color="#DAE9FF"/><stop offset="50.13%" stop-color="#BDD9FF"/><stop offset="62.95%" stop-color="#98C3FF"/><stop offset="75.82%" stop-color="#6BA9FF"/><stop offset="88.49%" stop-color="#378AFF"/><stop offset="100%" stop-color="#006AFF"/></linearGradient><linearGradient id="A" x1="49.982%" x2="50.012%" y1="49.896%" y2="50.056%"><stop offset="0%" stop-color="#FFF"/><stop offset="12.25%" stop-color="#FBFDFF"/><stop offset="24.76%" stop-color="#EFF5FF"/><stop offset="37.4%" stop-color="#DAE9FF"/><stop offset="50.13%" stop-color="#BDD9FF"/><stop offset="62.95%" stop-color="#98C3FF"/><stop offset="75.82%" stop-color="#6BA9FF"/><stop offset="88.49%" stop-color="#378AFF"/><stop offset="100%" stop-color="#006AFF"/></linearGradient><linearGradient id="B" x1=".002%" x2="100.002%" y1="49.999%" y2="49.999%"><stop offset="0%" stop-color="#311842"/><stop offset="46.11%" stop-color="#190C4B"/><stop offset="100%" stop-color="#000054"/></linearGradient><linearGradient id="C" x1="51.284%" x2="47.939%" y1="104.736%" y2="-35.417%"><stop offset="0%" stop-color="#0E0000"/><stop offset="14.05%" stop-color="#100003"/><stop offset="26.28%" stop-color="#15000E"/><stop offset="37.82%" stop-color="#1D0020"/><stop offset="48.95%" stop-color="#290039"/><stop offset="59.78%" stop-color="#38005A"/><stop offset="70.26%" stop-color="#4A0081"/><stop offset="72.67%" stop-color="#4F008B"/><stop offset="100%" stop-color="#4C24B1"/></linearGradient><linearGradient id="D" x1="104.298%" x2="32.146%" y1="1.504%" y2="70.093%"><stop offset="0%" stop-color="#FFF"/><stop offset=".776%" stop-color="#FDFEFF"/><stop offset="38.24%" stop-color="#92BFFF"/><stop offset="68.31%" stop-color="#4391FF"/><stop offset="89.52%" stop-color="#1375FF"/><stop offset="100%" stop-color="#006AFF"/></linearGradient><linearGradient id="E" x1="76.99%" x2="-11.981%" y1="81.437%" y2="-54.881%"><stop offset="0%" stop-color="#FFF"/><stop offset="12.25%" stop-color="#FBFDFF"/><stop offset="24.76%" stop-color="#EFF5FF"/><stop offset="37.4%" stop-color="#DAE9FF"/><stop offset="50.13%" stop-color="#BDD9FF"/><stop offset="62.95%" stop-color="#98C3FF"/><stop offset="75.82%" stop-color="#6BA9FF"/><stop offset="88.49%" stop-color="#378AFF"/><stop offset="100%" stop-color="#006AFF"/></linearGradient><linearGradient id="F" x1="49.985%" x2="49.985%" y1="-14.565%" y2="103.184%"><stop offset="0%" stop-color="#FFF"/><stop offset="15.25%" stop-color="#DEECFF"/><stop offset="48.94%" stop-color="#8ABAFF"/><stop offset="98.39%" stop-color="#046DFF"/><stop offset="100%" stop-color="#006AFF"/></linearGradient><linearGradient id="G" x1=".061%" x2="100.028%" y1="49.935%" y2="49.935%"><stop offset="0%" stop-color="#311842"/><stop offset="46.11%" stop-color="#190C4B"/><stop offset="100%" stop-color="#000054"/></linearGradient><linearGradient id="H" x1="-.064%" x2="100.075%" y1="50.344%" y2="50.344%"><stop offset="0%" stop-color="#311842"/><stop offset="46.11%" stop-color="#190C4B"/><stop offset="100%" stop-color="#000054"/></linearGradient><linearGradient id="I" x1=".071%" x2="100.077%" y1="49.969%" y2="49.969%"><stop offset="0%" stop-color="#311842"/><stop offset="46.11%" stop-color="#190C4B"/><stop offset="100%" stop-color="#000054"/></linearGradient><linearGradient id="J" x1="-.068%" x2="99.893%" y1="49.935%" y2="49.935%"><stop offset="0%" stop-color="#311842"/><stop offset="46.11%" stop-color="#190C4B"/><stop offset="100%" stop-color="#000054"/></linearGradient><linearGradient id="K" x1="-.004%" x2="100.076%" y1="49.594%" y2="49.594%"><stop offset="0%" stop-color="#311842"/><stop offset="46.11%" stop-color="#190C4B"/><stop offset="100%" stop-color="#000054"/></linearGradient><linearGradient id="L" x1="-.063%" x2="99.94%" y1="49.969%" y2="49.969%"><stop offset="0%" stop-color="#311842"/><stop offset="46.11%" stop-color="#190C4B"/><stop offset="100%" stop-color="#000054"/></linearGradient><linearGradient id="M" x1=".01%" x2="99.974%" y1="49.992%" y2="49.992%"><stop offset="0%" stop-color="#311842"/><stop offset="46.11%" stop-color="#190C4B"/><stop offset="100%" stop-color="#000054"/></linearGradient><linearGradient id="N" x1=".067%" x2="100.023%" y1="49.987%" y2="49.987%"><stop offset="0%" stop-color="#311842"/><stop offset="46.11%" stop-color="#190C4B"/><stop offset="100%" stop-color="#000054"/></linearGradient><linearGradient id="O" x1=".007%" x2="100.161%" y1="49.969%" y2="49.969%"><stop offset="0%" stop-color="#311842"/><stop offset="46.11%" stop-color="#190C4B"/><stop offset="100%" stop-color="#000054"/></linearGradient><linearGradient id="P" x1="-.003%" x2="99.997%" y1="49.695%" y2="49.695%"><stop offset="0%" stop-color="#311842"/><stop offset="46.11%" stop-color="#190C4B"/><stop offset="100%" stop-color="#000054"/></linearGradient><linearGradient id="Q" x1=".025%" x2="99.983%" y1="50.335%" y2="50.335%"><stop offset="0%" stop-color="#311842"/><stop offset="46.11%" stop-color="#190C4B"/><stop offset="100%" stop-color="#000054"/></linearGradient><linearGradient id="R" x1="59.438%" x2="39.722%" y1="3.093%" y2="101.138%"><stop offset="0%" stop-color="#88CFDA"/><stop offset=".834%" stop-color="#89CFD9"/><stop offset="47.84%" stop-color="#C8D9BB"/><stop offset="82.18%" stop-color="#F0DFA7"/><stop offset="100%" stop-color="#FFE1A0"/></linearGradient><linearGradient id="S" x1=".003%" x2="100.012%" y1="49.997%" y2="49.997%"><stop offset="0%" stop-color="#A1BAFF"/><stop offset="8.88%" stop-color="#ACC2FF"/><stop offset="49.88%" stop-color="#D9E3FF"/><stop offset="81.6%" stop-color="#F5F7FF"/><stop offset="100%" stop-color="#FFF"/></linearGradient><linearGradient id="T" x1="-.018%" x2="100.001%" y1="49.996%" y2="49.996%"><stop offset="0%" stop-color="#A1BAFF"/><stop offset="8.88%" stop-color="#ACC2FF"/><stop offset="49.88%" stop-color="#D9E3FF"/><stop offset="81.6%" stop-color="#F5F7FF"/><stop offset="100%" stop-color="#FFF"/></linearGradient></defs><g fill="none" fill-rule="nonzero"><path fill="url(#a)" d="M752.09,553.32 C752.09,553.32 834.51,446.91 743.24,355.68 C684.15,296.62 666.05,284.67 658.83,253.76 C643.31,187.3 586.63,0.5 421.73,0.5 C143,0.5 119.96,287.02 119.96,287.02 C119.96,287.02 40.21,302.37 10.51,408.03 C-17.63,508.15 22.3,558.25 22.3,558.25 L752.09,553.32 Z"/><g fill="#FFF" transform="translate(181 53)"><g transform="translate(0 22)"><circle cx="131.02" cy="2.89" r="2.15"/><path d="M209.04 67.37C209.04 67.96 208.56 68.43 207.98 68.43 207.39 68.43 206.92 67.95 206.92 67.37 206.92 66.78 207.4 66.31 207.98 66.31 208.56 66.31 209.04 66.79 209.04 67.37zM82.67 85.53C82.67 87.13 81.37 88.43 79.77 88.43 78.17 88.43 76.87 87.13 76.87 85.53 76.87 83.93 78.17 82.63 79.77 82.63 81.37 82.63 82.67 83.93 82.67 85.53zM4.7 72.03C4.7 73.26 3.7 74.26 2.47 74.26 1.24 74.26.24 73.26.24 72.03.24 70.8 1.24 69.8 2.47 69.8 3.7 69.8 4.7 70.8 4.7 72.03zM199.63 8.58C199.63 9.7 198.72 10.61 197.6 10.61 196.48 10.61 195.57 9.7 195.57 8.58 195.57 7.46 196.48 6.55 197.6 6.55 198.72 6.55 199.63 7.46 199.63 8.58z"/></g><g transform="translate(152)"><circle cx="130.81" cy="2.76" r="2.15"/><path d="M208.83 67.25C208.83 67.84 208.35 68.31 207.77 68.31 207.18 68.31 206.71 67.83 206.71 67.25 206.71 66.66 207.19 66.19 207.77 66.19 208.36 66.18 208.83 66.66 208.83 67.25zM82.47 85.41C82.47 87.01 81.17 88.31 79.57 88.31 77.97 88.31 76.67 87.01 76.67 85.41 76.67 83.81 77.97 82.5099427 79.57 82.5099427 81.17 82.5 82.47 83.8 82.47 85.41zM4.5 71.9C4.5 73.13 3.5 74.13 2.27 74.13 1.04 74.13.04 73.13.04 71.9.04 70.67 1.04 69.67 2.27 69.67 3.5 69.67 4.5 70.67 4.5 71.9zM199.42 8.46C199.42 9.58 198.51 10.49 197.39 10.49 196.27 10.49 195.36 9.58 195.36 8.46 195.36 7.34 196.27 6.43 197.39 6.43 198.51 6.42 199.42 7.33 199.42 8.46z"/></g></g><g transform="translate(132 307)"><rect width="532.5" height="7.26" x=".05" y="27.03" fill="url(#b)"/><polygon fill="url(#c)" points=".05 27.03 136.8 .8 401.38 .8 532.55 27.03"/><rect width="153.5" height="123.21" x="189.83" y="34.29" fill="#000"/><g transform="translate(32 34)"><polygon fill="url(#d)" points="95.87 .29 95.87 201.23 157.83 123.49 157.83 .29"/><rect width="8.19" height="200.94" x=".05" y=".29" fill="url(#e)"/><rect width="8.37" height="200.94" x="87.5" y=".29" fill="url(#f)"/><polygon fill="#000" points="7.12 201.23 22.38 183.37 22.38 .29 8.24 .29"/><rect width="75.91" height="183.08" x="11.58" y=".29" fill="url(#g)"/><rect width="75.91" height="56.4" x="11.58" y="2.89" fill="url(#h)"/><rect width="75.91" height="54.34" x="11.58" y="65.04" fill="url(#i)"/><rect width="75.91" height="55.08" x="11.58" y="125.69" fill="url(#j)"/><rect width="31.26" height="9.3" x="36.52" y=".29" fill="url(#k)"/><rect width="31.26" height="9.89" x="36.52" y="61.5" fill="url(#l)"/><rect width="31.26" height="9.89" x="36.52" y="121.6" fill="url(#m)"/></g><g transform="translate(343 34)"><polygon fill="url(#n)" points="62.19 .29 62.19 201.23 .23 123.49 .23 .29"/><rect width="8.19" height="200.94" x="149.82" y=".29" fill="url(#o)"/><rect width="8.37" height="200.94" x="62.19" y=".29" fill="url(#p)"/><polygon fill="#000" points="150.94 201.23 135.68 183.37 135.68 .29 149.82 .29"/><rect width="75.91" height="183.08" x="70.56" y=".29" fill="url(#q)"/><rect width="75.91" height="59" x="70.56" y="2.89" fill="url(#r)"/><rect width="75.91" height="56.93" x="70.56" y="65.04" fill="url(#s)"/><rect width="75.91" height="55.08" x="70.56" y="125.69" fill="url(#t)"/><rect width="31.26" height="9.3" x="90.29" y=".29" fill="url(#u)"/><rect width="31.26" height="9.3" x="90.29" y="61.5" fill="url(#v)"/><rect width="31.26" height="9.3" x="90.29" y="121.6" fill="url(#w)"/></g></g><polygon fill="#000" points="297.48 327.81 481.48 327.81 461.04 318.73 320.5 318.73" opacity=".4"/><g transform="translate(292 190)"><path fill="#000" d="M199.45,111.52 C199.45,115.39 196.31,118.53 192.44,118.53 L27.63,118.53 C23.76,118.53 20.62,115.39 20.62,111.52 L20.62,7.3 C20.62,3.43 23.76,0.29 27.63,0.29 L192.44,0.29 C196.31,0.29 199.45,3.43 199.45,7.3 L199.45,111.52 Z"/><rect width="159.94" height="100.52" x="29.78" y="9.45" fill="url(#x)"/><polygon fill="url(#y)" points="190.05 36.53 125.86 109.93 142.43 109.93 189.79 54.42" opacity=".2"/><polygon fill="url(#z)" points="30.09 57.31 83.23 10.48 151.11 9.96 53.24 109.93 29.78 109.97" opacity=".2"/><rect width="218.77" height="4.09" x=".55" y="126.62" fill="url(#A)"/><path fill="#000" d="M0.55,130.72 C0.55,130.72 3.86,135.98 13.99,135.98 C24.12,135.98 206.46,135.98 206.46,135.98 C206.46,135.98 212.89,137.15 219.32,130.72 L0.55,130.72 Z"/><polygon fill="url(#B)" points=".55 126.62 24.3 117.83 194.79 117.83 219.32 126.62"/></g><g transform="translate(298 343)"><g transform="translate(0 42)"><ellipse cx="103.21" cy="142.25" fill="#31174E" rx="102.84" ry="15.97"/><g transform="translate(30)"><path fill="url(#C)" d="M49.5,1.89 L29.06,6.3 C29.06,6.3 23.77,2.42 21.13,4.71 C18.49,7 -2.97,68.84 1.57,82.43 C4.57,91.42 13.38,98.29 13.38,98.29 C13.38,98.29 13.73,118.38 16.9,125.78 C20.07,133.18 31.35,138.29 38.05,139.17 C44.75,140.05 46.51,139.88 45.98,139.88 C45.45,139.88 45.45,147.28 45.45,147.28 L50.74,149.22 L55.32,149.4 L55.5,150.63 C55.5,150.63 77.88,152.39 81.23,151.86 C84.58,151.33 84.93,150.45 84.93,150.45 C84.93,150.45 83.7,142.87 80.7,140.23 C77.7,137.59 65.72,136.35 65.72,136.35 L72.06,134.41 C72.06,134.41 80.34,137.05 86.34,137.23 C92.33,137.41 92.33,137.41 92.33,137.41 L92.15,146.57 L97.44,148.86 L102.2,148.68 L102.2,150.79 C102.2,150.79 125.46,152.38 128.81,151.5 C132.16,150.62 132.16,150.62 132.16,150.62 C132.16,150.62 131.98,141.98 126.7,139.52 C121.41,137.05 117.89,136.17 117.89,136.17 L118.6,101.1 C118.6,101.1 133.4,87.88 135.17,82.42 C136.93,76.96 134.46,62.5 132.7,53.87 C130.94,45.23 123.71,14.92 120.72,9.63 C117.73,4.34 115.96,3.11 114.2,3.99 C112.44,4.87 111.2,5.75 111.2,5.75 L83.71,0.29 L49.5,1.89 Z"/><path fill="#000" d="M50.38 1.72L61.13 52.83C61.13 52.83 68.88 53.36 71 57.94 73.11 62.52 73.47 67.99 73.47 67.99L86.86 17.58 90.56 1.54 83.69.31 50.38 1.72zM50.91 125.44C50.91 125.44 59.63 118.83 63.07 115.26 66.51 111.69 67.43 109.84 67.43 110.24 67.43 110.64 84.22 125.44 84.22 125.44L82.11 127.16 67.44 116.32C67.44 116.32 61.89 121.87 57.92 124.38 53.95 126.89 53.16 127.29 53.16 127.29L50.91 125.44z"/><path fill="url(#D)" d="M70.34,118.43 C70.34,118.43 52.36,137.46 52.63,138.26 C52.9,139.06 55.54,139.58 56.86,138.52 C58.18,137.46 65.72,131.78 65.72,131.78 C65.72,131.78 57,140.64 57,141.16 C57,141.69 58.98,142.35 60.3,141.29 C61.62,140.23 69.16,133.09 68.89,133.62 C68.62,134.15 61.36,142.74 61.36,142.74 C61.36,142.74 62.95,144.46 64.53,143.27 C66.12,142.08 81.45,126.62 81.45,126.62 L70.34,118.43 Z"/><path fill="url(#E)" d="M53.95,126.76 C53.95,126.76 69.28,143.55 71,143.41 C72.72,143.28 73.78,143.01 72.06,141.16 C70.34,139.31 64.26,131.25 64.26,131.64 C64.26,132.03 74.44,141.42 74.44,141.42 C74.44,141.42 77.74,141.82 76.95,139.7 C76.16,137.58 68.09,129.39 68.09,129.39 C68.09,129.39 77.87,139.17 78.93,138.77 C79.99,138.37 81.04,137.98 79.19,135.86 C77.34,133.75 71.79,126.21 71.79,126.21 C71.79,126.21 79.46,128.85 80.12,128.59 C80.78,128.33 82.1,127.14 82.1,127.14 L67.43,116.3 C67.43,116.32 59.24,125.57 53.95,126.76 Z"/></g></g><g transform="translate(73)"><path fill="url(#F)" d="M5.69,4.2 C5.69,4.2 14.55,0.38 27.17,0.38 C39.79,0.38 49.29,3.5 51.39,4.97 C53.49,6.44 54.13,9.81 54.64,14.34 C55.15,18.87 56.62,34.03 54.96,42.32 C53.3,50.6 46.48,59.4 42.72,63.16 C38.96,66.92 33.41,70.74 30.42,71.19 C27.42,71.64 23.6,71.25 20.48,69.15 C17.36,67.05 9.14,60.16 4.99,52.2 C0.85,44.23 0.34,38.43 0.53,31.93 C0.72,25.43 1.61,10.68 3.33,7.52 C4.86,4.71 5.69,4.2 5.69,4.2 Z"/><path fill="#000" d="M19.77,25.3 C19.77,25.3 16.81,22.05 12.98,21.76 C9.16,21.47 7.29,23.77 7.24,23.91 C7.19,24.05 7.53,25.01 8.44,25.2 C9.35,25.39 17,26.21 19.77,25.3 Z"/><path fill="url(#G)" d="M19.77,25.3 C17,26.21 9.35,25.39 8.44,25.2 C7.53,25.01 7.2,24.05 7.24,23.91 C7.24,23.91 6.76,23.89 6.19,23.51 C5.62,23.13 5.43,21.06 5.43,21.06 C5.43,21.06 5.33,21.47 5.33,22.18 C5.33,22.88 5.55,23.39 5.65,23.71 C5.75,24.03 5.11,24.19 5.01,24.16 C4.91,24.13 5.33,24.45 5.71,24.51 C6.09,24.57 6.32,24.8 5.58,25.24 C4.85,25.69 3.35,28.14 3.35,28.14 C3.35,28.14 4.72,26.42 5.42,25.88 C6.12,25.34 7.01,25.37 8,25.56 C8.99,25.75 10.39,26.64 13.74,26.68 C17.09,26.71 19.83,25.44 19.83,25.44 L19.77,25.3 Z" opacity=".5"/><path fill="#000" d="M22.45,20.52 C22.45,20.52 21.26,20.33 19.73,19.37 C18.2,18.41 13.99,15.64 11.41,15.21 C8.83,14.78 6.44,15.31 5,16.36 C3.57,17.41 3.38,17.79 3.38,17.79 C3.38,17.79 4.91,13.82 9.26,13.49 C13.61,13.16 18.25,14.59 21.26,16.55 C24.26,18.51 23.36,20.37 22.45,20.52 Z"/><path fill="url(#H)" d="M22.21,13.41 C22.21,13.41 22.15,13.37 22.03,13.31 C21.91,13.24 21.73,13.15 21.5,13.02 C21.04,12.78 20.38,12.44 19.58,12.07 C18.77,11.7 17.82,11.29 16.77,10.93 C16.25,10.75 15.7,10.57 15.14,10.42 C14.58,10.27 14,10.14 13.42,10.05 C12.84,9.96 12.25,9.9 11.67,9.91 C11.53,9.92 11.38,9.92 11.24,9.93 C11.1,9.94 10.96,9.96 10.82,9.97 C10.68,9.99 10.54,10.02 10.4,10.04 C10.27,10.06 10.13,10.1 9.99,10.13 C9.72,10.19 9.45,10.25 9.19,10.33 C8.93,10.4 8.68,10.46 8.44,10.54 C8.2,10.62 7.96,10.69 7.73,10.77 C7.62,10.81 7.51,10.85 7.4,10.89 C7.29,10.93 7.19,10.98 7.08,11.02 C6.67,11.18 6.3,11.37 5.98,11.54 C5.67,11.72 5.4,11.89 5.2,12.05 C5,12.21 4.85,12.35 4.76,12.46 C4.67,12.57 4.63,12.63 4.63,12.63 C4.63,12.63 4.66,12.56 4.75,12.45 C4.84,12.34 4.98,12.19 5.18,12.02 C5.38,11.85 5.64,11.67 5.95,11.48 C6.27,11.3 6.63,11.1 7.04,10.93 C7.14,10.89 7.25,10.84 7.35,10.79 C7.46,10.75 7.57,10.7 7.68,10.66 C7.9,10.57 8.14,10.49 8.38,10.41 C8.62,10.32 8.88,10.25 9.13,10.17 C9.39,10.09 9.65,10.02 9.92,9.95 C10.06,9.91 10.19,9.87 10.33,9.84 C10.47,9.81 10.61,9.78 10.76,9.75 C10.91,9.73 11.05,9.71 11.2,9.69 C11.35,9.68 11.49,9.67 11.64,9.66 C12.23,9.64 12.84,9.67 13.44,9.75 C14.04,9.83 14.63,9.94 15.21,10.07 C15.79,10.2 16.35,10.37 16.88,10.53 C17.95,10.87 18.93,11.25 19.76,11.6 C20.59,11.95 21.27,12.27 21.74,12.51 C21.98,12.63 22.16,12.72 22.29,12.79 C22.42,12.86 22.48,12.89 22.48,12.89 C22.62,12.96 22.67,13.14 22.6,13.28 C22.53,13.42 22.35,13.47 22.21,13.4 C22.22,13.41 22.22,13.41 22.21,13.41 L22.21,13.41 Z" opacity=".5"/><path fill="url(#I)" d="M19.72,19.37 C18.19,18.41 13.98,15.64 11.4,15.21 C8.82,14.78 6.43,15.31 4.99,16.36 C4.86,16.46 4.73,16.55 4.62,16.64 C4.36,16.86 4.1,17.1 3.84,17.37 C3.74,17.47 8.33,15.31 13.73,17.56 C19.13,19.81 23.15,25.59 23.15,25.59 C23.15,25.59 22.79,22.63 21.24,20.16 C20.82,19.98 20.29,19.73 19.72,19.37 Z" opacity=".5"/><path fill="#000" d="M36.69,25.3 C36.69,25.3 39.65,22.05 43.48,21.76 C47.3,21.47 49.17,23.77 49.22,23.91 C49.27,24.05 48.93,25.01 48.02,25.2 C47.11,25.39 39.46,26.21 36.69,25.3 Z"/><path fill="url(#J)" d="M36.69,25.3 C39.46,26.21 47.11,25.39 48.02,25.2 C48.93,25.01 49.26,24.05 49.22,23.91 C49.22,23.91 49.7,23.89 50.27,23.51 C50.84,23.13 51.04,21.06 51.04,21.06 C51.04,21.06 51.14,21.47 51.14,22.18 C51.14,22.88 50.92,23.39 50.82,23.71 C50.72,24.03 51.36,24.19 51.46,24.16 C51.56,24.13 51.14,24.45 50.76,24.51 C50.38,24.57 50.15,24.8 50.89,25.24 C51.62,25.69 53.12,28.14 53.12,28.14 C53.12,28.14 51.75,26.42 51.05,25.88 C50.35,25.34 49.46,25.37 48.47,25.56 C47.48,25.75 46.08,26.64 42.73,26.68 C39.38,26.71 36.64,25.44 36.64,25.44 L36.69,25.3 Z" opacity=".5"/><path fill="#000" d="M34.02,20.52 C34.02,20.52 35.21,20.33 36.74,19.37 C38.27,18.41 42.48,15.64 45.06,15.21 C47.64,14.78 50.03,15.31 51.47,16.36 C52.9,17.41 53.09,17.79 53.09,17.79 C53.09,17.79 51.56,13.82 47.21,13.49 C42.86,13.16 38.22,14.59 35.21,16.55 C32.2,18.51 33.11,20.37 34.02,20.52 Z"/><path fill="url(#K)" d="M33.97,12.91 C33.97,12.91 34.04,12.87 34.16,12.81 C34.28,12.74 34.47,12.65 34.71,12.53 C35.18,12.3 35.86,11.98 36.69,11.62 C37.52,11.27 38.5,10.89 39.57,10.55 C40.11,10.38 40.67,10.22 41.24,10.09 C41.82,9.95 42.41,9.84 43.01,9.77 C43.61,9.69 44.21,9.66 44.81,9.68 C44.96,9.69 45.11,9.7 45.25,9.71 C45.4,9.72 45.54,9.75 45.69,9.77 C45.83,9.79 45.98,9.83 46.12,9.86 C46.26,9.89 46.4,9.93 46.53,9.97 C46.8,10.04 47.07,10.11 47.32,10.19 C47.58,10.27 47.83,10.34 48.07,10.43 C48.31,10.51 48.55,10.59 48.78,10.68 C48.89,10.72 49,10.77 49.11,10.81 C49.22,10.85 49.32,10.9 49.42,10.95 C49.83,11.13 50.2,11.32 50.51,11.5 C50.82,11.69 51.09,11.87 51.28,12.04 C51.48,12.21 51.63,12.35 51.71,12.47 C51.8,12.58 51.83,12.65 51.83,12.65 C51.83,12.65 51.79,12.58 51.7,12.48 C51.61,12.37 51.46,12.23 51.26,12.07 C51.06,11.91 50.79,11.74 50.48,11.56 C50.16,11.39 49.8,11.21 49.38,11.04 C49.28,11 49.17,10.95 49.06,10.91 C48.95,10.87 48.84,10.83 48.73,10.79 C48.51,10.71 48.27,10.63 48.02,10.56 C47.78,10.48 47.52,10.42 47.27,10.35 C47.01,10.28 46.74,10.22 46.47,10.15 C46.33,10.12 46.19,10.08 46.06,10.06 C45.92,10.04 45.78,10.01 45.64,9.99 C45.5,9.98 45.36,9.96 45.21,9.95 C45.07,9.94 44.92,9.94 44.78,9.93 C44.2,9.92 43.61,9.98 43.03,10.07 C42.45,10.16 41.87,10.29 41.31,10.44 C40.75,10.59 40.2,10.77 39.68,10.95 C38.63,11.31 37.68,11.72 36.87,12.09 C36.06,12.46 35.4,12.8 34.95,13.04 C34.72,13.16 34.54,13.26 34.42,13.33 C34.3,13.4 34.24,13.43 34.24,13.43 L34.24,13.43 C34.1,13.51 33.93,13.46 33.85,13.32 C33.78,13.16 33.83,12.99 33.97,12.91 C33.97,12.91 33.97,12.91 33.97,12.91 Z" opacity=".5"/><path fill="url(#L)" d="M36.74,19.37 C38.27,18.41 42.48,15.64 45.06,15.21 C47.64,14.78 50.03,15.31 51.47,16.36 C51.6,16.46 51.73,16.55 51.84,16.64 C52.1,16.86 52.36,17.1 52.62,17.37 C52.72,17.47 48.13,15.31 42.73,17.56 C37.33,19.81 33.31,25.59 33.31,25.59 C33.31,25.59 33.67,22.63 35.22,20.16 C35.64,19.98 36.17,19.73 36.74,19.37 Z" opacity=".5"/><path fill="#FFF" d="M7.53 32.61C7.53 30.5 9.24 28.79 11.35 28.79 13.46 28.79 15.17 30.5 15.17 32.61 15.17 34.72 13.46 36.43 11.35 36.43 9.25 36.43 7.53 34.72 7.53 32.61zM41.04 32.61C41.04 30.5 42.75 28.79 44.86 28.79 46.97 28.79 48.68 30.5 48.68 32.61 48.68 34.72 46.97 36.43 44.86 36.43 42.75 36.43 41.04 34.72 41.04 32.61z" opacity=".8"/><path fill="url(#M)" d="M3.47,36.29 C3.47,36.29 5.47,39.24 9.64,39.64 C14.71,40.12 20.11,36.34 20.11,36.34 C20.11,36.34 17.53,39.16 14.18,40.12 C10.83,41.08 7.58,40.45 7.39,40.55 C7.2,40.65 6.1,41.65 9.4,48.53 C12.7,55.41 16.33,63.11 16.33,63.11 C16.33,63.11 10.83,55.41 8.06,49.15 C5.29,42.89 4.91,40.16 5.81,39.69 C5.81,39.68 3.81,36.43 3.47,36.29 Z" opacity=".5"/><path fill="url(#N)" d="M52.7,36.53 C52.7,36.53 50.7,39.48 46.53,39.88 C41.46,40.36 36.06,36.58 36.06,36.58 C36.06,36.58 38.64,39.4 41.99,40.36 C45.34,41.32 48.59,40.69 48.78,40.79 C48.97,40.89 50.07,41.89 46.77,48.77 C43.47,55.65 39.84,63.35 39.84,63.35 C39.84,63.35 45.34,55.66 48.11,49.39 C50.88,43.13 51.26,40.4 50.36,39.93 C50.36,39.92 52.37,36.67 52.7,36.53 Z" opacity=".5"/><path fill="url(#O)" d="M25.46,22.91 C25.46,22.91 24.98,30.51 24.31,31.42 C23.64,32.33 20.15,36.39 20.2,37.87 C20.25,39.35 21.2,40.88 21.2,40.88 C21.2,40.88 20.39,38.63 21.34,37.39 C22.3,36.15 24.26,33.57 24.35,34.43 C24.45,35.29 23.54,38.73 24.25,40.12 C24.97,41.51 27.36,42.46 28.12,42.37 C28.88,42.27 30.94,41.65 31.66,40.46 C32.38,39.27 32.23,38.21 31.99,36.68 C31.75,35.15 31.46,34.1 31.99,34.34 C32.52,34.58 35,37.11 35.14,38.35 C35.28,39.59 34.95,41.03 34.95,41.03 C34.95,41.03 36.38,39.12 35.71,37.21 C35.04,35.3 31.69,31.81 31.5,30.42 C31.31,29.03 30.88,23.01 30.83,23.15 C30.78,23.29 30.16,30.8 30.45,34.48 C30.74,38.16 31.45,39.83 30.26,40.65 C29.06,41.46 27.68,41.08 26.68,40.84 C25.68,40.6 24.86,39.88 25.25,37.83 C25.65,35.76 26.08,25.3 25.46,22.91 Z" opacity=".5"/><path fill="#000" d="M22.16 41.02C22.16 41.02 23.21 42.12 23.88 42.31 24.55 42.5 24.6 41.5 23.69 41.16 22.78 40.83 22.16 41.02 22.16 41.02zM33.99 41.02C33.99 41.02 32.94 42.12 32.27 42.31 31.6 42.5 31.55 41.5 32.46 41.16 33.36 40.83 33.99 41.02 33.99 41.02z"/><path fill="url(#P)" d="M14.18,1.77 C13.47,1.77 12.73,1.76 11.94,1.73 C4.45,1.48 1.11,0.68 1.08,0.67 C0.98,0.64 0.93,0.53 0.96,0.43 C0.99,0.33 1.1,0.28 1.2,0.31 C1.24,0.32 4.61,1.11 11.95,1.35 C19.01,1.59 22.71,0.65 22.75,0.64 C22.85,0.61 22.96,0.67 22.98,0.78 C23.01,0.88 22.94,0.99 22.84,1.01 C22.81,1.01 19.84,1.77 14.18,1.77 Z" opacity=".5" transform="translate(16 50)"/><g opacity=".5"><path fill="url(#Q)" d="M7.74,2.9 C6.5,2.9 5.42,2.8 4.55,2.66 C2.01,2.27 0.56,1.55 0.5,1.52 C0.36,1.45 0.3,1.28 0.37,1.13 C0.44,0.99 0.61,0.93 0.76,1 C0.79,1.01 2.21,1.72 4.66,2.09 C6.93,2.44 10.57,2.56 15.03,1.17 C15.18,1.12 15.34,1.21 15.39,1.36 C15.44,1.51 15.35,1.67 15.2,1.72 C12.34,2.62 9.81,2.9 7.74,2.9 Z" opacity=".7" transform="translate(20 54)"/></g><path fill="#000" d="M29.9 58.95C30.03 58.15 30.47 57.21 30.72 56.72 29.64 56.86 28.65 56.91 27.74 56.91 26.75 56.91 25.87 56.84 25.1 56.75 25.48 57.34 26.05 58.47 25.79 59.81 25.41 61.77 24.55 63.16 24.83 65.5 25.12 67.84 25.98 72.43 26.46 72.67 26.94 72.91 29.23 72.96 29.57 72.05 29.9 71.14 31.15 65.31 30.91 63.83 30.67 62.34 29.71 60.09 29.9 58.95zM11.26 40.59C11.26 40.59 14.08 45.99 14.99 46.18 15.9 46.37 21.3 46.37 22.64 45.65 23.98 44.93 24.03 43.74 24.98 43.12 25.94 42.5 27.37 43.36 27.99 43.45L27.99 46.08C27.99 46.08 25.74 48.9 24.5 49.14 23.26 49.38 16.61 49.14 15.27 48.95 13.93 48.76 12.4 47.66 11.92 46.75 11.44 45.84 8.53 40.58 8.53 40.58L11.26 40.58 11.26 40.59z"/><path fill="#000" d="M44.63,40.93 C44.63,40.93 41.86,46 40.95,46.19 C40.04,46.38 34.64,46.38 33.3,45.66 C31.96,44.94 31.91,43.75 30.96,43.13 C30,42.51 28.57,43.37 27.95,43.46 L27.95,46.09 C27.95,46.09 30.2,48.91 31.44,49.15 C32.68,49.39 39.33,49.15 40.66,48.96 C42,48.77 43.53,47.67 44.01,46.76 C44.49,45.85 47.36,40.88 47.36,40.88 L44.63,40.93 Z"/></g></g><ellipse cx="559.02" cy="199.92" fill="#B3EFFF" rx="3.14" ry="3.11"/><path fill="url(#R)" d="M440.92,136.29 C457.26,152.71 483.82,152.78 500.24,136.44 C516.66,120.1 516.73,93.55 500.39,77.12 C484.05,60.7 457.49,60.63 441.07,76.97 C424.66,93.31 424.59,119.87 440.92,136.29 Z"/><path fill="url(#S)" d="M487.96,126.97 C491.79,126.97 495.37,128.02 498.44,129.85 C499.17,119.17 508.06,110.74 518.92,110.74 C521.57,110.74 524.1,111.25 526.42,112.16 C529.38,102.26 538.55,95.04 549.41,95.04 C562.67,95.04 573.41,105.79 573.41,119.04 C573.41,119.38 573.4,119.72 573.38,120.05 C573.39,120.05 573.4,120.05 573.41,120.05 C586.66,120.05 597.41,130.8 597.41,144.05 C597.41,157.31 586.66,168.05 573.41,168.05 C572.58,168.05 571.76,168.01 570.96,167.93 L490.2,167.93 C489.46,168.01 488.72,168.05 487.96,168.05 C476.62,168.05 467.42,158.85 467.42,147.51 C467.42,136.17 476.62,126.97 487.96,126.97 Z" opacity=".6"/><path fill="url(#T)" d="M429.27,78.95 C427.08,78.95 425.02,79.55 423.27,80.6 C422.85,74.48 417.76,69.65 411.54,69.65 C410.2,69.65 408.91,69.89 407.71,70.31 C405.98,64.71 400.75,60.63 394.58,60.63 C394.12,60.63 393.66,60.66 393.21,60.7 C387.44,61.06 382.64,64.97 380.97,70.28 C379.76,69.86 378.47,69.62 377.12,69.62 C370.9,69.62 365.81,74.45 365.39,80.57 C363.63,79.52 361.58,78.92 359.39,78.92 C352.89,78.92 347.63,84.19 347.63,90.68 C347.63,97.18 352.9,102.44 359.39,102.44 C359.82,102.44 360.25,102.41 360.67,102.37 L378.73,102.37 C379.26,102.43 379.79,102.47 380.34,102.47 C380.81,102.47 381.28,102.45 381.74,102.4 L407.53,102.4 C407.79,102.41 408.05,102.44 408.32,102.44 C408.59,102.44 408.85,102.41 409.11,102.4 L427.99,102.4 C428.41,102.45 428.84,102.47 429.27,102.47 C435.77,102.47 441.03,97.2 441.03,90.71 C441.03,84.21 435.76,78.95 429.27,78.95 Z" opacity=".3"/></g></svg>